# xmcd CD database file
# Copyright (C) 1993-1996 Ti Kan
#
# Track frame offsets:
#  150
#  14401
#  29494
#  48369
#  58928
#  74663
#  94752
#  104561
#  119201
#  138997
#  158546
#  173180
#  193901
#  208743
#  223397
#  241180
#
# Disc length: 3330 seconds
#
# Revision: 1
# Processed by: cddbd v1.5.1PL0 Copyright (c) Steve Scherf et al.
# Submitted via: Advanced CD Ripper Pro 2.0
#
DISCID=fd0d0010
DTITLE=The Chieftains - Further Down The Old Plank Road
DYEAR=2003
DGENRE=Country
TTITLE0=Raggle Taggle Gypsy
TTITLE1=Lambs In The Greenfield
TTITLE2=Three Little Babes
TTITLE3=Shady Grove
TTITLE4=Jordan Is A Hard Road To Travel
TTITLE5=Hick's Farewell
TTITLE6=Fisher's Hornpipe
TTITLE7=Moonshiner
TTITLE8=The Lily Of The West
TTITLE9=Rosc Catha - Arkansas Traveler;The Wild Irishman
TTITLE10=The Cheating Waltz - Bandit Of Love
TTITLE11=Talk About Sufferin'
TTITLE12=Squid Jiggin' Around
TTITLE13=The Girl From Sunny Tennessee
TTITLE14=Wild Mountain Thyme
TTITLE15=Chief O'Neill's Hornpipe
EXTD=
EXTT0=
EXTT1=
EXTT2=
EXTT3=
EXTT4=
EXTT5=
EXTT6=
EXTT7=
EXTT8=
EXTT9=
EXTT10=
EXTT11=
EXTT12=
EXTT13=
EXTT14=
EXTT15=
PLAYORDER=
